<?xml version="1.0" encoding="utf-8"?>
<!-- Generator: Adobe Illustrator 26.0.3, SVG Export Plug-In . SVG Version: 6.00 Build 0)  -->
<svg version="1.1" id="Layer_1" xmlns="http://www.w3.org/2000/svg" xmlns:xlink="http://www.w3.org/1999/xlink" x="0px" y="0px"
	 viewBox="0 0 487.6 492.6" style="enable-background:new 0 0 487.6 492.6;" xml:space="preserve">
<style type="text/css">
	.st0{enable-background:new    ;}
	.st1{fill:#FFFFFF;}
	.st2{clip-path:url(#SVGID_00000022520945857540964660000005217420246276718763_);}
	.st3{clip-path:url(#SVGID_00000045602696301623069180000006934465652702364304_);}
</style>
<g id="Group_34" transform="translate(-678 -196.124)">
	<g id="Group_1" transform="translate(760.159 395.793)">
		<g class="st0">
			<path class="st1" d="M2.6,84.8V72.1L52,47.9v18.8L26.5,78.5L52,90.3v18.8L2.6,84.8z"/>
			<path class="st1" d="M59.2,40h25.9c7.9,0,14.8,1.4,20.7,4.3c5.9,2.9,10.5,7,13.6,12.4c3.2,5.4,4.8,11.7,4.8,18.9
				c0,11.9-3.5,21-10.5,27.1c-7,6.1-16.7,9.2-29.1,9.2H59.2V40z M86.1,96.7c6.2,0,11-1.9,14.4-5.7c3.3-3.8,5-8.9,5-15.3
				c0-5.9-1.7-10.8-5-14.6c-3.3-3.8-7.9-5.7-13.8-5.7h-9.3v41.3H86.1z"/>
			<path class="st1" d="M131.4,40h51.1v15.3h-32.9v13.5h24v14.3h-24v13.5h32.9V112h-51.1V40z"/>
			<path class="st1" d="M187.2,40h19.5L225,87.9L243.3,40h19.4l-28.7,72H216L187.2,40z"/>
			<path class="st1" d="M267.8,90.3l25.5-11.7l-25.5-11.7V47.9l49.4,24.2v12.7l-49.4,24.3V90.3z"/>
		</g>
		<g class="st0">
			<path class="st1" d="M4.7,147.6h8.6l12.3,26.7l12.3-26.7h8.5v39.8H38v-22.6l-10.5,22.6h-4L13,164.8v22.6H4.7V147.6z"/>
			<path class="st1" d="M64.5,185.6c-3.2-1.7-5.8-4.2-7.7-7.3c-1.9-3.1-2.8-6.7-2.8-10.8s0.9-7.7,2.8-10.8c1.9-3.2,4.4-5.6,7.7-7.4
				c3.2-1.7,6.9-2.6,10.9-2.6c4,0,7.6,0.9,10.8,2.6c3.2,1.7,5.7,4.2,7.6,7.4c1.9,3.2,2.8,6.8,2.8,10.8s-0.9,7.7-2.8,10.8
				c-1.9,3.1-4.4,5.6-7.6,7.3c-3.2,1.7-6.8,2.6-10.8,2.6C71.3,188.3,67.7,187.4,64.5,185.6z M81.6,178.7c1.9-1,3.4-2.5,4.5-4.4
				c1.1-1.9,1.7-4.2,1.7-6.8c0-2.5-0.5-4.8-1.6-6.7c-1.1-1.9-2.6-3.4-4.4-4.4s-4-1.6-6.3-1.6c-2.4,0-4.5,0.5-6.4,1.6
				c-1.9,1-3.4,2.5-4.5,4.4c-1.1,1.9-1.7,4.2-1.7,6.7c0,2.6,0.6,4.8,1.7,6.8c1.1,1.9,2.6,3.4,4.5,4.4c1.9,1,4,1.6,6.3,1.6
				C77.6,180.3,79.7,179.8,81.6,178.7z"/>
			<path class="st1" d="M108.3,183.7c-3-3.1-4.4-7.2-4.4-12.3v-23.8h8.7v23.9c0,2.9,0.8,5.1,2.4,6.6c1.6,1.5,3.8,2.3,6.6,2.3
				c2.7,0,4.9-0.8,6.5-2.3c1.6-1.5,2.4-3.7,2.4-6.6v-23.9h8.7v23.8c0,5.2-1.5,9.3-4.4,12.3c-2.9,3.1-7.3,4.6-13.1,4.6
				S111.3,186.7,108.3,183.7z"/>
			<path class="st1" d="M147.5,147.6h8.4l16.6,25.8v-25.8h8.7v39.8h-8.4l-16.7-25.8v25.8h-8.7V147.6z"/>
			<path class="st1" d="M199.6,154.8h-11.6v-7.2h31.9v7.2h-11.6v32.6h-8.7V154.8z"/>
			<path class="st1" d="M234.2,147.6h8.5l15.9,39.8h-8.8l-3.4-8.7h-15.8l-3.4,8.7h-8.9L234.2,147.6z M244.1,171.8l-5.6-15.2
				l-5.6,15.2H244.1z"/>
			<path class="st1" d="M266.3,147.6h8.7v39.8h-8.7V147.6z"/>
			<path class="st1" d="M283.8,147.6h8.4l16.6,25.8v-25.8h8.7v39.8h-8.4l-16.7-25.8v25.8h-8.7V147.6z"/>
		</g>
		<g class="st0">
			<path class="st1" d="M11,216.3H4.9v-3h15.9v3h-6.1v17.2H11V216.3z"/>
			<path class="st1" d="M30.1,213.2h13.7v3h-10v5.6h7.5v3h-7.5v5.6h10v3H30.1V213.2z"/>
			<path class="st1" d="M57.6,232.7c-1.6-0.9-2.9-2.1-3.8-3.7c-0.9-1.6-1.4-3.5-1.4-5.6c0-2.1,0.5-4,1.4-5.6
				c0.9-1.6,2.2-2.8,3.8-3.7c1.6-0.9,3.5-1.3,5.7-1.3c2.8,0,5.1,0.7,7,2v3.5c-1.7-1.4-3.9-2.1-6.7-2.1c-1.5,0-2.8,0.3-3.9,0.9
				c-1.1,0.6-2,1.4-2.6,2.5c-0.6,1.1-0.9,2.4-0.9,3.8c0,1.5,0.3,2.7,0.9,3.8c0.6,1.1,1.5,1.9,2.6,2.5c1.1,0.6,2.4,0.9,3.9,0.9
				c1.4,0,2.7-0.2,3.8-0.5c1.1-0.4,2.2-0.9,3.1-1.7v3.5c-1.8,1.4-4.2,2.1-7.2,2.1C61.1,233.9,59.2,233.5,57.6,232.7z"/>
			<path class="st1" d="M80.3,213.2H84v8.4h9.7v-8.4h3.7v20.3h-3.7v-8.8H84v8.8h-3.7V213.2z"/>
			<path class="st1" d="M125.3,213.2H139v3.1h-10v5.7h7.5v2.8h-7.5v8.8h-3.7V213.2z"/>
			<path class="st1" d="M148.2,213.2H162v3h-10v5.6h7.5v3h-7.5v5.6h10v3h-13.7V213.2z"/>
			<path class="st1" d="M173.8,233.6c-1.2-0.2-2.1-0.5-2.9-0.9v-3.2c1,0.5,2,0.8,3,1c1.1,0.2,2.1,0.3,3.1,0.3c1.3,0,2.3-0.2,3-0.7
				c0.7-0.5,1-1.1,1-2c0-0.6-0.2-1.1-0.5-1.5c-0.3-0.4-0.8-0.7-1.4-1c-0.6-0.3-1.5-0.7-2.8-1.2c-1.9-0.8-3.3-1.6-4.1-2.6
				c-0.9-0.9-1.3-2.1-1.3-3.5c0-1.1,0.3-2.1,0.9-2.9c0.6-0.9,1.4-1.5,2.5-2s2.3-0.7,3.7-0.7c1.2,0,2.2,0.1,3.1,0.3
				c0.9,0.2,1.8,0.5,2.7,0.9v3.1c-1.7-0.8-3.4-1.2-5.1-1.2c-1.2,0-2.2,0.2-2.9,0.7c-0.7,0.5-1,1.1-1,1.9c0,0.6,0.2,1.1,0.5,1.5
				s0.7,0.7,1.2,1c0.5,0.3,1.4,0.7,2.8,1.2c1.4,0.6,2.4,1.1,3.2,1.7s1.4,1.2,1.8,1.9c0.4,0.7,0.6,1.6,0.6,2.7c0,1.8-0.6,3.2-1.9,4.2
				c-1.3,1-3.2,1.5-5.7,1.5C176.2,233.9,175,233.8,173.8,233.6z"/>
			<path class="st1" d="M199.2,216.3h-6.1v-3H209v3h-6.1v17.2h-3.7V216.3z"/>
			<path class="st1" d="M218.3,213.2h3.7v20.3h-3.7V213.2z"/>
			<path class="st1" d="M231.8,213.2h3.9l6,15.3l6-15.3h3.9l-8.1,20.3h-3.6L231.8,213.2z"/>
			<path class="st1" d="M265.1,213.2h3.6l8.1,20.3H273l-1.9-4.7h-8.6l-1.8,4.7h-3.8L265.1,213.2z M270.1,225.8l-3.3-8.6l-3.3,8.6
				H270.1z"/>
			<path class="st1" d="M286.6,213.2h3.7v17.2h9.7v3h-13.4V213.2z"/>
		</g>
	</g>
	<g id="Group_3" transform="translate(691.837 196.124)">
		<g>
			<defs>
				<rect id="SVGID_1_" x="0" width="460.3" height="195.9"/>
			</defs>
			<clipPath id="SVGID_00000080913697041517025330000011455068444752680588_">
				<use xlink:href="#SVGID_1_"  style="overflow:visible;"/>
			</clipPath>
			
				<g id="Group_2" transform="translate(0 0)" style="clip-path:url(#SVGID_00000080913697041517025330000011455068444752680588_);">
				<path id="Path_1" class="st1" d="M457.7,179.6l-16.7-2.2l-12.6-30l-0.4-1.1l-1-0.5l-8.8-4.4l-4.4-2.2l-2.2-1.1l-1.1-0.5
					l-0.8-0.4c-2-1.3-3.9-4.2-5.5-7.2c-1.7-3.1-3.3-6.6-5.7-9.9l-0.9-1.2l-1.3,0.1c-1.9,0.3-3.8,0.8-5.6,1.7
					c-0.8,0.4-1.7,0.7-2.5,0.9c-0.7-2.4-1.4-4.9-1.8-7.4c-0.7-3.7-1.7-7.3-3-10.9l-1.2-2.9l-2.4,1.4c-1.2,0.8-2.2,1.8-3,3l-4.3-14
					l-1.9-6.1l-2.9,5.5l-13.2,25l-0.4,0.8v1c0,4,0.5,7.7,0.6,11.2c-2.2,0.7-4.6,1.1-7.2,1.7c-0.8,0.2-1.7,0.4-2.5,0.7
					c-0.4,0.1-0.9,0.3-1.3,0.4l-1.2,0.5c-1.7,0.7-3.3,1.6-4.8,2.6c-5.1,3.4-9.2,7.9-13.4,11.8c-2.3-6.4-4.4-13.2-7.1-19.9l-0.6-1.6
					l-1.4-0.2c-3.6-0.5-6.8,0-9.6,0c0-0.5-0.1-1-0.1-1.5c-0.1-1.7-0.3-3.4-0.6-5l-0.3-1.2l-0.9-0.7l-20.9-17
					c-2.2-7.8-4.7-15.2-6.7-22.6l-0.8-2.8l-2.3,0.6c-3.1,0.8-5.9,2.1-8.5,2.9c-3.8-4.9-7.5-9.9-11.2-15l-6.2-8.3l-3.2-4.1l-1.6-2
					l-1.3-1.9l-1.2-2l-1.1-2.2c-0.7-1.5-1.3-3.1-1.8-4.7c-1.1-3.3-2-6.7-2.9-10.3s-1.8-7.2-3-10.8c-0.6-1.8-1.2-3.6-1.9-5.4
					c-0.7-1.8-1.6-3.5-2.5-5.2L223.6,0l-2,5.4L209,38.8l-7.8,0.9l-1.8,0.2l-0.5,2.3c-1.4,6.8-2,13.5-3.2,19.7
					c-2.4,1.2-4.8,2.2-7.3,3c-3.2,1-6.3,2.4-9.2,3.9l-1.2,0.7l-0.3,1.6L175,87.4l-0.6-0.2l-1.8-0.7c-0.8-0.3-1.6-0.4-2.4-0.5
					l-1.9-0.1l-0.6,2.2l-8,27.9c-1,0.6-2,1.2-3,1.7c-0.6,0.3-1.2,0.6-1.8,0.9c-0.1-0.6-0.3-1.1-0.4-1.7c-0.4-2-1-3.9-1.6-5.8l-1-2.7
					l-2.3,1c-1.1,0.5-2.1,1-3,1.7c-0.1,0.1-0.2,0.1-0.2,0.1c-1-2.3-1.9-4.8-3.1-7.4l-0.9-2l-1.8,0.4c-4.5,0.9-8.6,2.5-12.5,3.4
					c-8.5-12.7-16.2-26.4-25-39.3l-2.5-3.6l-1.9,4.1l-6.6,14.1l-0.8,1.8l-0.8,1.6c-0.2,0.4-0.5,0.8-0.7,1.2
					c-0.1,0.2-0.2,0.3-0.4,0.4c0,0-0.1,0-0.4,0c-0.4,0-0.8-0.1-1.2-0.2c-1-0.3-2-0.6-3.1-1l-1.9-0.6l-1,2.1l-10.5,21.2
					c-9.6,3.9-18,10.5-24.1,19c-3.6,0.3-7.3,0.3-11.2,0.5c-1,0.1-2.2,0.1-3.2,0.2l-0.4,0l-0.1,0c-0.6,0.1-1.1,0.3-1.5,0.7
					c-0.2,0.1-0.3,0.3-0.4,0.5l-0.1,0.2l-0.2,0.3c-0.1,0.2-0.2,0.4-0.2,0.6c-0.2,0.5-0.3,1-0.4,1.6c-0.1,0.8-0.2,1.4-0.3,2.1
					c-0.3,2.6-0.5,5.2-0.7,7.7l-0.6,7.6l-0.2,1.8c0,0.2,0,0.3-0.1,0.5c0,0-0.1,0.5-0.2,0.8l-0.5,1.7l0,0.1l-1,0.7l-1.3,1
					c-0.8,0.6-1.6,1.1-2.4,1.5c-1.8,1-3.7,1.8-5.7,3l-1.2,0.7l-0.3,1.6l-2.2,11.5l-10.4,3.9l-1.3,0.5l-0.3,1.6v0
					c-0.7,6,0,11.1-0.4,16.5c1.9-4.1,3.1-8.8,4.8-12.6l0.4-0.2l15,8.2l-2.4-16.4l1.8-9.7l18.8,20.3l-7.5-27.6
					c0.2-0.2,0.3-0.5,0.5-0.8c0.2-0.4,0.4-0.9,0.5-1.4l0.5-1.9c0.1-0.4,0.1-0.4,0.3-1.1c0.1-0.7,0.2-1,0.2-1.4l0.2-2l0.6-7.7
					c0.2-2.5,0.4-5.1,0.7-7.4c0-0.1,0-0.2,0-0.4l0.3,0l15.7,28.6l2.3-33.6c2.4-3,5.2-5.7,8.2-8.1c3.9-3,8.2-5.5,12.8-7.3l0.9-0.4
					l0.5-1L85.1,92c0.3,0.1,0.5,0.2,0.8,0.2l5.8,22.1l0.8-23c0.4-0.4,0.8-0.8,1.1-1.2c0.5-0.6,0.9-1.3,1.2-2
					c0.3-0.6,0.6-1.3,0.9-1.9l0.8-1.8L100,77c-0.8,6.7-1.2,15.5-2.8,18c1.2,2.5,2.8,4.9,4,7.3c-2.2,4.9-4.3,11.1-6.5,16
					c2.4,10.1,5.9,21.5,8.3,31.6c2.7-6,5.8-13.1,8.5-19.1c-1-7.3-1.5-15.4-2.5-22.7c2.4-3.2,4.9-6.3,7.3-9.5
					c2.7,4.3,5.4,8.6,8.3,12.9l0.3,0.5l-7,14.3c7.4-4.9,14.8-9.8,22.2-14.7c0.7,1.8,1.5,3.7,2.4,5.6l1.1,2.4l2.1-0.9
					c0.8-0.4,1.7-0.8,2.4-1.3v27.1l12.1-21.5c1-0.5,2-1.2,2.9-1.9l0.7-0.6l0.3-1l7.3-25.3l10.5,50.3l20,15.8l-9.4-24.9l13.6,4.6
					l-26.5-48.7l2.8-16.5l18.3,12.7l2-36.2c0.3-1.8,0.6-3.7,0.9-5.4l7.4-0.8l1.5-0.2l0.6-1.7l10.6-28.2c-0.1,12.9,0.2,31.8,0.1,42.5
					c4.3,5.7,9.1,12.5,13.4,18.2c-1.1,1.3-1.8,3.3-2.8,4.5c0.5,3,1.7,6,2.2,9c4.5,4.8,9.2,10.2,13.6,15c7.9-1.8,19.5-0.8,28.6-0.6
					l20.6,16.7c0.1,0.8,0.2,1.7,0.3,2.7c0.1,1.7,0.3,3.4,0.6,5l0.5,2.2l1.8,0.3c3.2,0.5,6.1,0,8.7,0l-0.3,45.1l13.2-21.8l0.3-0.2
					c5.6-4.7,10.3-10.3,15.5-13.7c1.3-0.8,2.6-1.6,4-2.2l1.1-0.4l1-0.3c0.7-0.2,1.5-0.4,2.2-0.6c3-0.7,6.4-1.1,9.9-2.6l1.8-0.8v-2.4
					c0-4.6-0.6-8.8-0.7-12.8l9.9-18.7l0.1,0.2c-1.1,11.4-2.5,27.4-3.5,37.7c4.4,6.7,8.8,13.9,13.2,20.6c3.5-9,7-20.6,10.5-29.8
					c1-0.3,2-0.7,3-1.1c0.9-0.4,1.8-0.7,2.8-1c-1,9.4-3.5,21.1-2.6,30.1c4.4-4.8,8.9-9.5,13.3-14.2c0.5,0.4,1,0.9,1.5,1.2l1.4,0.8
					l1.1,0.5l2.2,1.1l4.4,2.2l6.7,3.3c-2.6,3.4-5.1,6.8-7.6,10.2c5.3,2.9,11.4,6.3,16.7,9.3l4.9,11.6l0.6,1.5l1.4,0.2l16.9,2.3
					l3.6,9.7l0.7-13.5l0.1-2.3l-2.5-0.3L457.7,179.6z M32.5,134L32.5,134C32.4,134,32.4,134,32.5,134 M262.3,84.1L262.3,84.1
					l1.5-0.3c2.8-0.8,5.3-1.8,7.7-2.7c1.8,6.3,3.8,12.3,5.5,18.4c-4.7-3.7-10.4-8.1-13.3-10.6C263.1,87.3,262.7,85.6,262.3,84.1"/>
				<path id="Path_2" class="st1" d="M273.5,137.9c-7.7-1.3-25.6-14-32.4-16.6l-24.4,30l25.8-21.6c1.9,6.3,4.9,14,4,16.9
					c2.6,1.7,5.6,3.1,8.2,4.8c-0.6,5.6-0.7,12.3-1.3,17.9c7.4,8.2,16.8,16.9,24.2,25.1c0.9-6.9,1.6-14.9,2.5-21.7
					c-4.4-6.2-8.6-13.5-13-19.7C269.3,148,271.4,142.9,273.5,137.9"/>
				<path id="Path_3" class="st1" d="M102.6,172.9l20.6-23.7l10.9,46.8v-23.8l5.5,6.1l5.7-14.4l-24.9-20.9L102.6,172.9z"/>
				<path id="Path_4" class="st1" d="M350.7,157.8l-11.5,20.9l13.3-14.6l17.7,27.1l3.6-15.6l-11.4-6.9L350.7,157.8z"/>
				<path id="Path_5" class="st1" d="M230.8,106.8l-9.4-0.8l-7.9-37.6l4.9,43.6C218.4,112,230.7,106.8,230.8,106.8"/>
				<path id="Path_6" class="st1" d="M78.7,151.8H74l-4.3-22.3l1.3,28.9l18.6,6.9l-7.5-6.1L78.7,151.8z"/>
			</g>
		</g>
	</g>
	<g id="Group_5" transform="translate(678 675.998)">
		<g>
			<defs>
				<rect id="SVGID_00000099623784908696822640000015510946391820436670_" y="0" width="487.6" height="12.8"/>
			</defs>
			<clipPath id="SVGID_00000146462314267488528450000009445887378536737160_">
				<use xlink:href="#SVGID_00000099623784908696822640000015510946391820436670_"  style="overflow:visible;"/>
			</clipPath>
			<g id="Group_4" style="clip-path:url(#SVGID_00000146462314267488528450000009445887378536737160_);">
				<path id="Path_7" class="st1" d="M0,8.9c0,0,1.9-0.1,5.5-0.2C9,8.5,14.3,8.3,21,8.1c13.3-0.3,32.4-1,55.2-1.5
					c11.4-0.2,23.8-0.4,36.9-0.7c13.1-0.2,26.9-0.3,41.2-0.5c14.3-0.1,29-0.2,44-0.3c15,0,30.2-0.1,45.5-0.1
					C259,5,274.2,5,289.2,5.1c15,0,29.8,0.2,44,0.3c28.6,0.3,55.2,0.7,78.1,1.2c22.9,0.4,41.9,1.1,55.2,1.5
					c6.7,0.2,11.9,0.4,15.5,0.5c3.6,0.1,5.5,0.2,5.5,0.2s-1.9,0.1-5.5,0.2c-3.6,0.1-8.8,0.4-15.5,0.5c-13.3,0.3-32.4,1-55.2,1.5
					c-22.9,0.5-49.5,0.9-78.1,1.2c-14.3,0.1-29,0.3-44,0.3c-15,0-30.2,0.1-45.5,0.1c-15.2,0-30.5-0.1-45.5-0.1
					c-15-0.1-29.8-0.2-44-0.3c-14.3-0.2-28.1-0.4-41.2-0.5c-13.1-0.2-25.5-0.5-36.9-0.7C53.3,10.7,34.3,10,21,9.6
					C14.3,9.5,9.1,9.2,5.5,9.1C1.9,8.9,0,8.9,0,8.9"/>
			</g>
		</g>
	</g>
</g>
</svg>
